inDegrees=yes
name=ik_MT_012005D6_009-001_orientations
DataType=double
version=3
OpenSimVersion=4.2-2021-02-10-d1304141c
endheader
time	pelvis_tilt	pelvis_list	pelvis_rotation	pelvis_tx	pelvis_ty	pelvis_tz	hip_flexion_r	hip_adduction_r	hip_rotation_r	knee_angle_r	knee_angle_r_beta	ankle_angle_r	subtalar_angle_r	mtp_angle_r	hip_flexion_l	hip_adduction_l	hip_rotation_l	knee_angle_l	knee_angle_l_beta	ankle_angle_l	subtalar_angle_l	mtp_angle_l	lumbar_extension	lumbar_bending	lumbar_rotation	arm_flex_r	arm_add_r	arm_rot_r	elbow_flex_r	pro_sup_r	wrist_flex_r	wrist_dev_r	arm_flex_l	arm_add_l	arm_rot_l	elbow_flex_l	pro_sup_l	wrist_flex_l	wrist_dev_l	pelvis_tilt	pelvis_list	pelvis_rotation	pelvis_tx	pelvis_ty	pelvis_tz	hip_flexion_r	hip_adduction_r	hip_rotation_r	knee_angle_r	knee_angle_r_beta	ankle_angle_r	subtalar_angle_r	mtp_angle_r	hip_flexion_l	hip_adduction_l	hip_rotation_l	knee_angle_l	knee_angle_l_beta	ankle_angle_l	subtalar_angle_l	mtp_angle_l	lumbar_extension	lumbar_bending	lumbar_rotation	arm_flex_r	arm_add_r	arm_rot_r	elbow_flex_r	pro_sup_r	wrist_flex_r	wrist_dev_r	arm_flex_l	arm_add_l	arm_rot_l	elbow_flex_l	pro_sup_l	wrist_flex_l	wrist_dev_l
2.249999999999996	-50.08076202294937	89.86229248072316	-62.91555749854073	0	0.9399999999999999	0	0.4579350390446355	0.04230047243812044	-0.2694329792953545	0.6014204847104645	0.01049676764713782	0.2065265965406439	0	0	0.6050056097845001	0.01178897344415738	-0.08516023823153268	0.776160717940823	0.01354656005271038	0.1775961363513753	0	0	-1.321113046458442	0.4841738476154228	-0.01875756015085627	0	-14.97537221380039	0	74.99989348640572	45.00000025533872	0	0	0	-14.97537221380039	0	74.99989348640572	45.00000025533872	0	0	-50.08076202294937	89.86229248072316	-62.91555749854073	0	0.9399999999999999	0	0.4579350390446355	0.04230047243812044	-0.2694329792953545	0.6014204847104645	0.01049676764713782	0.2065265965406439	0	0	0.6050056097845001	0.01178897344415738	-0.08516023823153268	0.776160717940823	0.01354656005271038	0.1775961363513753	0	0	-1.321113046458442	0.4841738476154228	-0.01875756015085627	0	-14.97537221380039	0	74.99989348640572	45.00000025533872	0	0	0	-14.97537221380039	0	74.99989348640572	45.00000025533872	0	0
2.259999999999996	-50.12065756450524	89.76032305973949	-62.93073942432636	0	0.9399999999999999	0	0.3749959668064057	0.0991066447575915	-0.2056005364431947	0.6181667675981685	0.01078904542099864	0.233072602293416	0	0	0.4924059303120465	-0.02585613960003282	-0.1140696470811396	0.7592886544649082	0.01325208699345019	0.1987206126137641	0	0	-1.534771305225204	0.6219359719495585	0.005670618600200648	0	-14.97609180413067	0	74.99990905595803	45.00000025533896	0	0	0	-14.97609180413067	0	74.99990905595803	45.00000025533896	0	0	-50.12065756450524	89.76032305973949	-62.93073942432636	0	0.9399999999999999	0	0.3749959668064057	0.0991066447575915	-0.2056005364431947	0.6181667675981685	0.01078904542099864	0.233072602293416	0	0	0.4924059303120465	-0.02585613960003282	-0.1140696470811396	0.7592886544649082	0.01325208699345019	0.1987206126137641	0	0	-1.534771305225204	0.6219359719495585	0.005670618600200648	0	-14.97609180413067	0	74.99990905595803	45.00000025533896	0	0	0	-14.97609180413067	0	74.99990905595803	45.00000025533896	0	0
2.269999999999996	-50.15108599127687	89.70628699368278	-62.94712953771119	0	0.9399999999999999	0	0.3338861438674496	0.1211476550558146	-0.1606123684917528	0.6226353678320179	0.0108670372080347	0.2242211176484228	0	0	0.4271295016218261	-0.04613719279257256	-0.1357935874074814	0.7392288403323291	0.01290197718949859	0.2026500685897843	0	0	-1.659478666822061	0.6949479504908594	0.02604725404568079	0	-14.97676735002607	0	74.99992329555928	45.00000025533917	0	0	0	-14.97676735002607	0	74.99992329555928	45.00000025533917	0	0	-50.15108599127687	89.70628699368278	-62.94712953771119	0	0.9399999999999999	0	0.3338861438674496	0.1211476550558146	-0.1606123684917528	0.6226353678320179	0.0108670372080347	0.2242211176484228	0	0	0.4271295016218261	-0.04613719279257256	-0.1357935874074814	0.7392288403323291	0.01290197718949859	0.2026500685897843	0	0	-1.659478666822061	0.6949479504908594	0.02604725404568079	0	-14.97676735002607	0	74.99992329555928	45.00000025533917	0	0	0	-14.97676735002607	0	74.99992329555928	45.00000025533917	0	0
2.279999999999995	-50.18301023124511	89.66622527272833	-62.96620745255777	0	0.9399999999999999	0	0.3257477063778432	0.1554141050867927	-0.1085164749666575	0.6413413769813322	0.01119351865759842	0.2020498313012956	0	0	0.3837395537371214	-0.06385633235459587	-0.1505099698580656	0.7228149334130655	0.01261550047064157	0.195706227263681	0	0	-1.74842051138724	0.7598574806063148	0.05163697019199071	0	-14.97742514213596	0	74.9999368047613	45.00000025533935	0	0	0	-14.97742514213596	0	74.9999368047613	45.00000025533935	0	0	-50.18301023124511	89.66622527272833	-62.96620745255777	0	0.9399999999999999	0	0.3257477063778432	0.1554141050867927	-0.1085164749666575	0.6413413769813322	0.01119351865759842	0.2020498313012956	0	0	0.3837395537371214	-0.06385633235459587	-0.1505099698580656	0.7228149334130655	0.01261550047064157	0.195706227263681	0	0	-1.74842051138724	0.7598574806063148	0.05163697019199071	0	-14.97742514213596	0	74.9999368047613	45.00000025533935	0	0	0	-14.97742514213596	0	74.9999368047613	45.00000025533935	0	0
2.289999999999995	-50.2126422798401	89.6930155657161	-62.982675738489	0	0.9399999999999999	0	0.6766019393710423	0.1280351907795058	-0.1791268410058043	1.217233303820595	0.02124472891659785	0.4502306507782732	0	0	0.6971604168586253	-0.04397899901213784	-0.2685423613749511	1.267062590364042	0.02211441403070071	0.4403651804873978	0	0	-1.771089067992869	0.7983177591372955	0.08943613862467793	0	-14.97806488406231	0	74.99994960470553	45.00000025533949	0	0	0	-14.97806488406231	0	74.99994960470553	45.00000025533949	0	0	-50.2126422798401	89.6930155657161	-62.982675738489	0	0.9399999999999999	0	0.6766019393710423	0.1280351907795058	-0.1791268410058043	1.217233303820595	0.02124472891659785	0.4502306507782732	0	0	0.6971604168586253	-0.04397899901213784	-0.2685423613749511	1.267062590364042	0.02211441403070071	0.4403651804873978	0	0	-1.771089067992869	0.7983177591372955	0.08943613862467793	0	-14.97806488406231	0	74.99994960470553	45.00000025533949	0	0	0	-14.97806488406231	0	74.99994960470553	45.00000025533949	0	0
2.299999999999995	-50.21393244133091	89.65241704662452	-63.02506813417079	0	0.9399999999999999	0	0.3755130251134376	0.1364746637177461	-0.0764179911738489	0.6939951114637151	0.01211249968778687	0.1515630110433047	0	0	0.3846068864315059	-0.06558488863158783	-0.2005183931314693	0.743321934569851	0.01297341516053776	0.1632500355156417	0	0	-1.846295062194006	0.8733000662364283	0.1238594232468645	0	-14.97853104735614	0	74.99995874737751	45.00000025533961	0	0	0	-14.97853104735614	0	74.99995874737751	45.00000025533961	0	0	-50.21393244133091	89.65241704662452	-63.02506813417079	0	0.9399999999999999	0	0.3755130251134376	0.1364746637177461	-0.0764179911738489	0.6939951114637151	0.01211249968778687	0.1515630110433047	0	0	0.3846068864315059	-0.06558488863158783	-0.2005183931314693	0.743321934569851	0.01297341516053776	0.1632500355156417	0	0	-1.846295062194006	0.8733000662364283	0.1238594232468645	0	-14.97853104735614	0	74.99995874737751	45.00000025533961	0	0	0	-14.97853104735614	0	74.99995874737751	45.00000025533961	0	0
2.309999999999995	-50.22944676765788	89.6548619083745	-63.03549369422507	0	0.9399999999999999	0	0.4160451536153608	0.1265097430630839	-0.09191978634241074	0.7342852346621316	0.01281569499363339	0.1397483011529367	0	0	0.4226890332489222	-0.06849010576002164	-0.209899385153322	0.7955772439379661	0.01388544236065961	0.1843213340824866	0	0	-1.874593318792988	0.9126196653357976	0.1571630120572844	0	-14.97913773279615	0	74.99997034302409	45.00000025533973	0	0	0	-14.97913773279615	0	74.99997034302409	45.00000025533973	0	0	-50.22944676765788	89.6548619083745	-63.03549369422507	0	0.9399999999999999	0	0.4160451536153608	0.1265097430630839	-0.09191978634241074	0.7342852346621316	0.01281569499363339	0.1397483011529367	0	0	0.4226890332489222	-0.06849010576002164	-0.209899385153322	0.7955772439379661	0.01388544236065961	0.1843213340824866	0	0	-1.874593318792988	0.9126196653357976	0.1571630120572844	0	-14.97913773279615	0	74.99997034302409	45.00000025533973	0	0	0	-14.97913773279615	0	74.99997034302409	45.00000025533973	0	0
2.319999999999995	-50.24628611052218	89.69855699101257	-63.04355152003979	0	0.9399999999999999	0	0.4841290113502985	0.1020590769694792	-0.1125430510228917	0.7595916334929611	0.01325737497505421	0.09983981935202617	0	0	0.5057328171966371	-0.05631713209590555	-0.2288469231512561	0.8589455512445248	0.01499142796457463	0.17632019283168	0	0	-1.883426194972845	0.9340165471835944	0.21304476504766	0	-14.97973278664857	0	74.99998140841701	45.00000025533983	0	0	0	-14.97973278664857	0	74.99998140841701	45.00000025533983	0	0	-50.24628611052218	89.69855699101257	-63.04355152003979	0	0.9399999999999999	0	0.4841290113502985	0.1020590769694792	-0.1125430510228917	0.7595916334929611	0.01325737497505421	0.09983981935202617	0	0	0.5057328171966371	-0.05631713209590555	-0.2288469231512561	0.8589455512445248	0.01499142796457463	0.17632019283168	0	0	-1.883426194972845	0.9340165471835944	0.21304476504766	0	-14.97973278664857	0	74.99998140841701	45.00000025533983	0	0	0	-14.97973278664857	0	74.99998140841701	45.00000025533983	0	0
2.329999999999994	-50.25048838099026	89.74572149397598	-63.05024659201828	0	0.9399999999999999	0	0.5548774702039075	0.07315703313677288	-0.1500424456317455	0.7845836324452928	0.01369356764342737	0.09563520162002856	0	0	0.5981725147699071	-0.05225869109912755	-0.2490004138635237	0.9414436283023592	0.01643129103579784	0.2113041204303698	0	0	-1.866721517498942	0.9343991046691716	0.2487907263294091	0	-14.98030237577152	0	74.99999173079451	45.00000025533993	0	0	0	-14.98030237577152	0	74.99999173079451	45.00000025533993	0	0	-50.25048838099026	89.74572149397598	-63.05024659201828	0	0.9399999999999999	0	0.5548774702039075	0.07315703313677288	-0.1500424456317455	0.7845836324452928	0.01369356764342737	0.09563520162002856	0	0	0.5981725147699071	-0.05225869109912755	-0.2490004138635237	0.9414436283023592	0.01643129103579784	0.2113041204303698	0	0	-1.866721517498942	0.9343991046691716	0.2487907263294091	0	-14.98030237577152	0	74.99999173079451	45.00000025533993	0	0	0	-14.98030237577152	0	74.99999173079451	45.00000025533993	0	0
